<?xml version="1.0" standalone="no"?>
<!DOCTYPE svg PUBLIC "-//W3C//DTD SVG 20010904//EN"
 "http://www.w3.org/TR/2001/REC-SVG-20010904/DTD/svg10.dtd">
<svg version="1.0" xmlns="http://www.w3.org/2000/svg"
 width="600.000000pt" height="600.000000pt" viewBox="0 0 600.000000 600.000000"
 preserveAspectRatio="xMidYMid meet">
<g transform="translate(0.000000,600.000000) scale(0.100000,-0.100000)"
fill="#000000" stroke="none">
<path d="M1113 3545 c-56 -28 -95 -76 -113 -140 -8 -28 -10 -158 -8 -431 l3
-391 30 -49 c19 -30 49 -60 79 -79 l49 -30 406 0 c368 0 409 2 438 18 44 24
79 60 103 108 20 38 21 57 20 445 0 441 -1 447 -58 508 -61 65 -66 66 -503 66
l-395 0 -51 -25z m870 -14 c10 -7 17 -10 17 -7 0 4 7 0 16 -8 8 -9 12 -21 8
-27 -4 -8 -3 -9 5 -5 15 9 44 -20 35 -35 -4 -8 -3 -9 4 -5 24 15 31 -78 32
-431 0 -199 3 -370 6 -380 5 -14 4 -15 -4 -3 -8 10 -11 3 -14 -30 -3 -38 -6
-45 -23 -42 -15 2 -17 0 -6 -6 9 -7 10 -15 3 -28 -11 -22 -52 -61 -52 -50 0 3
-10 0 -22 -8 -18 -12 -72 -15 -255 -18 -127 -2 -227 0 -221 3 6 4 -9 7 -33 7
-34 0 -39 -2 -24 -9 12 -5 -38 -8 -130 -7 -162 2 -195 5 -173 19 9 6 3 9 -18
9 -31 0 -91 49 -77 63 3 4 1 7 -5 7 -12 0 -25 31 -29 70 -8 72 -12 505 -5 509
5 3 6 53 2 111 -5 59 -4 112 1 122 5 9 9 23 8 30 0 7 -4 4 -9 -7 -6 -13 -9
-15 -9 -5 0 22 52 123 63 121 5 -2 12 2 15 7 3 5 24 19 46 31 39 21 47 21 436
19 318 -2 399 -6 412 -17z"/>
<path d="M1086 3464 c-5 -14 -4 -15 9 -4 17 14 19 20 6 20 -5 0 -12 -7 -15
-16z"/>
<path d="M1489 3337 c-10 -10 -24 -15 -31 -11 -6 4 -8 3 -4 -4 8 -14 -51 -75
-64 -67 -6 4 -7 12 -3 18 4 7 0 6 -10 -2 -18 -14 -22 -23 -9 -18 4 1 8 -2 8
-8 2 -14 -53 -75 -60 -68 -3 4 -6 1 -6 -6 0 -7 -5 -9 -10 -6 -6 4 -7 11 -4 17
4 6 3 8 -3 5 -5 -3 -9 -16 -8 -29 2 -22 -44 -79 -57 -72 -4 3 -10 -1 -14 -7
-4 -8 -3 -9 4 -5 7 4 13 2 13 -3 1 -6 2 -15 3 -21 0 -5 31 -39 69 -75 37 -37
64 -71 61 -77 -4 -6 -2 -8 4 -5 5 4 29 -11 53 -33 31 -28 46 -37 55 -29 7 5
14 6 16 2 3 -4 4 -3 2 4 -4 17 8 24 22 12 8 -7 14 -7 19 1 3 5 1 10 -5 10 -8
0 -7 5 2 14 32 34 48 57 48 71 0 25 17 25 28 0 9 -19 9 -24 -1 -22 -6 1 -11
-4 -9 -10 1 -7 -5 -13 -13 -13 -8 0 -15 -5 -15 -12 0 -21 -70 -77 -88 -71 -15
6 -16 5 -2 -12 15 -19 14 -19 -15 -1 -26 16 -28 16 -14 1 15 -16 14 -19 -20
-55 -56 -58 -62 -68 -50 -75 6 -5 4 -11 -6 -18 -13 -10 -9 -12 20 -12 19 0 35
2 35 5 0 3 40 3 90 0 63 -4 95 -1 107 8 21 15 36 16 27 0 -4 -7 -3 -8 4 -4 6
4 9 12 6 19 -5 14 47 57 74 62 10 1 16 8 14 15 -4 17 68 91 81 83 6 -3 7 -1 4
5 -4 5 6 21 22 35 17 14 27 28 23 32 -4 5 2 5 13 1 11 -4 16 -4 12 0 -4 4 -1
14 6 23 10 14 10 14 -4 3 -14 -10 -18 -10 -22 2 -3 8 -3 17 1 19 4 2 1 2 -7 0
-21 -6 -150 134 -137 147 8 8 6 9 -5 5 -17 -6 -74 40 -74 59 0 5 -7 11 -15 13
-13 4 -13 3 0 -6 13 -9 13 -11 -2 -11 -10 0 -35 -18 -55 -40 -21 -22 -43 -40
-50 -40 -8 0 -10 -7 -6 -17 6 -15 4 -16 -8 -6 -12 10 -15 8 -15 -6 0 -10 5
-17 11 -15 6 3 17 -7 25 -21 7 -14 17 -25 22 -25 5 0 6 -4 3 -10 -7 -11 -55
31 -48 43 2 4 -1 6 -7 5 -21 -5 -20 36 1 55 10 10 19 15 19 12 0 -3 9 -1 20 5
11 6 18 15 15 21 -4 5 -1 9 5 9 6 0 8 5 5 10 -3 6 -1 10 5 10 7 0 21 11 32 25
11 14 24 23 29 20 5 -4 6 2 2 12 -6 16 -5 17 12 3 11 -9 16 -10 11 -2 -4 6 -2
12 3 12 6 0 11 6 11 13 0 18 45 59 54 50 4 -4 4 1 0 11 -5 14 -4 17 4 12 9 -6
9 -1 0 19 -7 16 -17 24 -27 21 -9 -3 -60 -2 -114 2 -87 7 -100 6 -118 -11z
m251 -13 c0 0 -62 -62 -139 -138 l-138 -137 54 -52 54 -51 -51 -51 -51 -52
-112 114 -113 114 128 127 129 127 119 0 c66 0 120 0 120 -1z m10 -531 l-125
-123 -117 0 c-65 0 -118 1 -118 3 0 2 59 62 132 134 l132 131 -56 53 -55 53
51 52 51 51 115 -116 115 -115 -125 -123z"/>
<path d="M1320 3069 c0 -5 5 -7 10 -4 6 3 10 8 10 11 0 2 -4 4 -10 4 -5 0 -10
-5 -10 -11z"/>
<path d="M1347 3045 c-4 -8 -3 -16 1 -19 4 -3 9 4 9 15 2 23 -3 25 -10 4z"/>
<path d="M1226 3108 c3 -4 11 -5 19 -1 21 7 19 12 -4 10 -11 0 -18 -5 -15 -9z"/>
<path d="M2025 2509 c-4 -6 -5 -12 -2 -15 2 -3 7 2 10 11 7 17 1 20 -8 4z"/>
<path d="M2790 2980 l0 -280 59 0 59 0 4 129 c2 109 6 132 22 149 42 47 126
35 145 -20 6 -17 11 -82 11 -144 l0 -114 58 0 57 0 -3 147 c-4 176 -14 205
-83 241 -54 29 -136 25 -181 -8 l-28 -21 0 101 0 100 -60 0 -60 0 0 -280z m96
151 c0 -71 3 -85 17 -87 9 -1 19 2 23 7 3 5 10 7 15 4 5 -4 9 -2 9 3 0 5 6 9
13 10 6 1 29 4 50 7 27 4 37 2 32 -6 -5 -8 -1 -8 15 1 17 9 25 9 38 -3 9 -9
22 -17 27 -19 6 -2 9 -7 7 -11 -1 -5 2 -6 7 -2 6 3 18 -9 27 -26 13 -26 14
-33 2 -40 -10 -7 -10 -9 0 -9 9 0 12 -30 12 -115 l0 -115 -35 0 -36 0 2 117
c2 79 -1 118 -9 121 -6 2 -8 10 -5 19 5 12 3 14 -8 8 -12 -7 -12 -6 -1 7 11
13 11 18 0 24 -21 13 -38 13 -38 1 0 -8 -3 -8 -8 -2 -10 14 -52 17 -67 5 -10
-8 -15 -8 -21 1 -5 8 -3 10 7 4 8 -5 10 -4 6 0 -4 5 -15 10 -24 11 -12 2 -13
0 -4 -9 14 -14 15 -30 1 -22 -5 3 -10 2 -10 -4 0 -5 -10 -13 -21 -16 -17 -6
-19 -9 -8 -16 8 -5 9 -9 3 -9 -13 0 -15 -12 -14 -137 l1 -103 -35 0 -36 0 0
246 0 245 33 -3 32 -3 1 -84z m199 -111 c3 -5 1 -10 -4 -10 -6 0 -11 5 -11 10
0 6 2 10 4 10 3 0 8 -4 11 -10z"/>
<path d="M2485 3096 c-136 -51 -122 -211 21 -231 99 -14 126 -24 122 -48 -6
-44 -101 -45 -198 -3 -12 5 -20 -4 -30 -31 -8 -21 -16 -41 -18 -45 -6 -13 105
-41 167 -41 124 -1 191 44 191 127 0 63 -32 91 -128 111 -101 22 -101 22 -109
41 -15 40 72 57 150 30 l38 -14 19 39 c11 21 20 40 20 43 0 10 -71 27 -135 32
-48 3 -83 0 -110 -10z m157 -36 c-1 -10 3 -8 13 4 13 18 19 15 16 -6 0 -4 7
-4 17 -1 15 6 15 5 3 -10 -10 -13 -21 -15 -45 -10 -28 6 -102 7 -132 2 -6 -1
-22 -22 -35 -45 -25 -47 -48 -62 -60 -42 -5 8 -2 16 9 20 15 6 15 7 -2 7 -20
1 -20 1 0 17 16 13 16 15 1 10 -16 -5 -16 -4 -1 20 17 24 64 58 50 35 -9 -15
-6 -14 37 7 45 22 134 16 129 -8z m-99 -138 c16 -7 40 -10 55 -7 23 5 24 4 7
-5 -18 -9 -18 -10 5 -8 14 1 31 -2 39 -6 10 -7 12 -6 6 5 -5 7 4 3 20 -9 23
-18 31 -35 35 -67 3 -24 2 -41 -2 -39 -4 3 -8 2 -8 -3 0 -4 -9 -19 -20 -33
l-20 -25 4 25 c2 14 9 24 15 23 5 -2 8 4 4 12 -4 13 -9 12 -24 -6 -10 -12 -17
-25 -14 -29 2 -4 -7 -12 -21 -19 -21 -9 -30 -9 -42 1 -9 7 -13 8 -10 3 6 -10
-57 -13 -87 -5 -5 1 -14 2 -19 1 -5 -1 -6 6 -2 16 6 17 5 17 -7 1 -11 -13 -16
-15 -25 -6 -14 14 -16 38 -3 38 5 0 26 -6 47 -13 22 -8 53 -13 69 -12 17 1 38
-3 49 -8 10 -5 16 -5 13 0 -3 4 1 14 9 21 8 7 14 10 14 5 0 -12 29 31 30 44 0
7 -10 22 -22 34 -13 12 -16 18 -8 14 9 -5 12 -4 7 1 -4 4 -22 9 -40 9 -18 0
-32 6 -32 12 0 6 -4 15 -9 20 -5 4 -6 3 -2 -4 3 -6 2 -14 -4 -18 -5 -3 -10 -2
-10 4 0 5 -15 8 -33 7 -32 -3 -62 10 -65 27 -1 4 6 15 16 25 16 18 18 18 37 2
11 -9 33 -22 48 -28z"/>
<path d="M2520 3060 c-9 -6 -10 -10 -3 -10 6 0 15 5 18 10 8 12 4 12 -15 0z"/>
<path d="M2445 3039 c-4 -6 -5 -12 -2 -15 2 -3 7 2 10 11 7 17 1 20 -8 4z"/>
<path d="M2470 2935 c-11 -13 -11 -18 0 -28 10 -9 11 -9 6 1 -4 7 -2 19 4 27
7 8 10 15 7 15 -2 0 -10 -7 -17 -15z"/>
<path d="M3385 3104 c-45 -11 -105 -36 -105 -44 0 -7 20 -49 37 -79 2 -2 8 1
15 7 27 21 97 33 136 22 35 -9 62 -39 62 -68 0 -4 -37 -7 -83 -8 -102 -1 -153
-21 -174 -72 -41 -99 58 -190 178 -163 52 12 88 44 71 63 -8 11 -6 17 9 26 11
7 18 16 15 20 -3 5 -1 14 4 22 4 7 4 23 -2 36 -9 19 -20 23 -72 26 -72 4 -112
-4 -108 -22 2 -7 -1 -16 -6 -19 -14 -8 -23 -89 -12 -96 6 -4 7 2 3 12 -6 16
-5 17 12 3 17 -13 18 -13 11 0 -4 8 -1 7 7 -3 9 -10 18 -18 21 -18 3 1 8 0 11
0 3 -1 10 -2 17 -3 6 0 13 -7 16 -14 3 -10 -8 -12 -45 -8 -55 5 -105 24 -98
37 3 4 2 10 -3 13 -4 2 -9 21 -10 40 -3 36 29 83 48 71 4 -3 10 0 12 7 3 9 31
12 91 12 48 -1 87 3 87 8 0 5 5 6 12 2 6 -4 8 -3 4 4 -3 6 -2 13 3 16 13 8
-21 86 -37 86 -7 0 -11 4 -8 9 3 4 -2 8 -12 8 -48 0 -63 4 -56 14 4 7 -1 7
-16 -1 -12 -6 -28 -9 -36 -6 -10 4 -12 2 -8 -6 5 -8 2 -9 -10 -5 -10 4 -15 3
-11 -3 3 -6 1 -10 -5 -10 -6 0 -13 7 -16 15 -4 8 -11 12 -18 8 -6 -4 -5 1 3
11 10 12 16 14 21 5 6 -8 9 -8 12 1 2 7 18 13 36 12 17 0 34 4 37 9 4 5 11 9
16 9 6 0 8 -3 6 -7 -3 -5 14 -8 36 -8 23 1 51 -3 62 -8 30 -15 57 -46 49 -59
-4 -7 -3 -8 4 -4 8 5 12 -1 13 -16 2 -54 -3 -263 -7 -267 -2 -2 -15 1 -29 7
-19 9 -24 18 -22 34 2 13 2 17 0 10 -3 -7 -8 -10 -11 -8 -4 2 -7 -11 -7 -30
l0 -34 55 0 55 0 -5 154 c-6 171 -12 191 -79 230 -32 18 -135 30 -176 20z
m145 -259 c0 -71 -127 -102 -151 -37 -15 39 20 62 91 62 57 0 60 -1 60 -25z
m-34 -107 c5 -7 3 -8 -6 -3 -7 4 -15 2 -20 -5 -5 -8 -9 -7 -13 4 -8 19 28 23
39 4z"/>
<path d="M3894 3091 c-23 -11 -44 -25 -47 -32 -3 -8 -6 -2 -6 14 -1 26 -3 27
-56 27 l-55 0 0 -200 0 -200 58 0 57 0 -3 92 c-2 50 -1 107 3 126 9 48 49 82
96 82 l39 0 0 55 c0 50 -2 55 -22 55 -13 0 -42 -9 -64 -19z m51 -11 c3 -5 1
-10 -4 -10 -6 0 -11 5 -11 10 0 6 2 10 4 10 3 0 8 -4 11 -10z m-127 -28 c7
-12 17 -20 22 -17 6 4 10 0 10 -7 0 -8 5 -6 11 5 9 15 13 16 27 5 13 -10 14
-10 8 0 -13 21 12 43 34 30 21 -13 15 -42 -7 -34 -8 3 -12 2 -9 -3 3 -4 -6
-13 -20 -20 -20 -9 -24 -9 -19 1 4 7 0 4 -9 -7 -8 -11 -21 -27 -28 -35 -8 -9
-14 -54 -16 -127 l-4 -113 -28 0 -28 0 -7 98 c-4 53 -5 131 -3 173 3 73 4 76
28 75 15 -1 30 -10 38 -24z"/>
<path d="M4204 3099 c-34 -10 -87 -59 -63 -59 8 0 25 7 37 16 12 8 22 12 22 8
0 -3 6 -1 13 5 8 6 17 8 20 4 4 -3 7 -2 7 4 0 6 8 10 18 8 9 -2 34 -7 55 -10
21 -3 35 -9 33 -13 -3 -5 0 -14 6 -22 8 -12 9 -12 4 3 -3 9 -1 17 5 17 6 0 13
-9 16 -20 3 -11 9 -18 13 -15 10 6 22 -24 15 -36 -4 -5 1 -6 9 -3 16 6 17 3
20 -86 1 -14 -3 -31 -8 -38 -5 -7 -10 -22 -11 -35 -1 -12 -3 -26 -4 -31 0 -4
-8 -5 -17 -2 -13 5 -14 4 -6 -7 9 -11 5 -19 -20 -37 -28 -21 -31 -21 -25 -4 7
18 6 18 -8 -1 -12 -15 -28 -20 -69 -20 -31 0 -52 4 -48 9 3 5 -2 6 -12 3 -10
-4 -26 -1 -36 6 -18 13 -18 13 2 26 18 11 22 11 30 -3 5 -9 14 -16 19 -16 6 0
7 5 4 10 -3 6 -1 10 4 10 6 0 11 -4 11 -10 0 -5 7 -10 16 -10 8 0 13 4 10 8
-3 5 10 15 29 24 19 8 32 11 29 7 -3 -5 -3 -9 1 -9 8 0 46 91 50 119 4 33 -30
96 -64 120 -16 12 -41 18 -69 17 -23 0 -42 2 -42 7 0 4 -5 7 -11 7 -6 0 -9 -6
-6 -14 6 -15 -16 -40 -25 -30 -3 3 -12 -8 -19 -25 -11 -24 -16 -28 -28 -18
-12 10 -13 9 -5 -3 5 -8 9 -28 10 -45 0 -16 5 -39 9 -49 6 -14 5 -17 -4 -11
-10 6 -11 3 -1 -14 8 -17 8 -26 0 -36 -8 -10 -8 -15 2 -21 7 -4 10 -4 6 1 -4
4 -3 14 3 22 10 11 14 10 25 -4 16 -22 17 -33 3 -33 -5 0 -7 6 -3 13 6 8 3 8
-9 -2 -32 -25 8 -65 82 -82 100 -22 208 48 230 150 35 162 -100 295 -255 250z
m103 -104 c12 -8 27 -31 33 -51 36 -109 -75 -199 -158 -129 -78 66 -37 195 62
195 23 0 51 -7 63 -15z"/>
<path d="M4239 2843 c-13 -16 -12 -17 4 -4 9 7 17 15 17 17 0 8 -8 3 -21 -13z"/>
<path d="M4460 3105 c0 0 40 -92 89 -205 78 -180 88 -207 76 -225 -20 -32 -57
-40 -94 -22 l-31 16 -17 -37 c-9 -20 -19 -40 -21 -45 -6 -12 65 -37 108 -37
56 0 103 22 132 61 19 26 164 354 213 479 4 13 -4 14 -51 10 l-57 -5 -49 -115
c-26 -63 -51 -123 -56 -133 -6 -14 -21 14 -62 116 l-55 135 -63 4 c-34 2 -62
3 -62 3z m96 -42 c-3 -7 0 -12 6 -10 7 1 15 -9 18 -23 3 -14 20 -54 38 -90 18
-36 32 -70 32 -76 0 -14 31 -48 47 -51 6 -2 15 6 18 17 4 11 10 18 14 16 4 -3
13 12 21 32 15 41 34 64 45 54 5 -4 5 -1 1 6 -4 7 -12 10 -17 7 -14 -9 -11 7
10 47 11 19 17 39 13 44 -4 4 -1 3 7 -1 11 -6 13 -4 8 8 -3 10 -2 17 4 17 6 0
8 3 6 8 -3 4 6 7 19 7 21 0 24 -4 20 -26 -5 -34 -34 -89 -47 -89 -6 0 -8 -4
-4 -10 3 -5 -1 -25 -9 -44 -8 -19 -12 -37 -8 -40 3 -3 0 -6 -6 -6 -6 0 -9 -7
-5 -17 4 -11 3 -14 -6 -9 -8 5 -11 3 -10 -5 3 -21 -12 -50 -23 -43 -6 4 -7 -2
-3 -16 5 -17 4 -21 -5 -15 -9 5 -11 4 -6 -3 4 -6 -2 -29 -14 -51 -11 -22 -20
-46 -20 -54 0 -42 -116 -86 -179 -67 -14 5 -21 9 -16 9 6 1 3 6 -5 11 -12 8
-12 10 5 10 16 0 17 2 5 10 -10 6 4 7 40 4 47 -5 58 -3 77 15 34 32 38 63 13
111 -13 25 -16 39 -8 34 10 -6 10 -4 -1 9 -7 9 -10 17 -5 17 5 0 4 4 -2 8 -13
9 -80 149 -97 203 -6 21 -16 39 -22 39 -5 0 -5 4 2 8 20 13 54 9 49 -5z"/>
<path d="M4535 3029 c-6 -8 -4 -10 5 -4 10 6 12 4 6 -11 -6 -15 -5 -17 5 -6 9
9 10 15 2 23 -8 8 -13 7 -18 -2z"/>
<path d="M4750 2859 c0 -5 5 -7 10 -4 6 3 10 8 10 11 0 2 -4 4 -10 4 -5 0 -10
-5 -10 -11z"/>
<path d="M4653 2615 c0 -8 4 -12 9 -9 4 3 8 9 8 15 0 5 -4 9 -8 9 -5 0 -9 -7
-9 -15z"/>
<path d="M4030 2826 l0 -273 56 2 57 2 -2 87 c-2 79 -5 91 -28 115 l-25 26 15
-25 c16 -27 24 -169 10 -171 -56 -9 -53 -13 -53 85 0 50 -2 163 -5 251 -3 88
-3 154 1 148 7 -16 34 -17 34 -2 0 5 5 7 11 4 6 -4 8 -13 5 -21 -4 -11 -2 -12
14 -1 11 6 20 20 20 29 0 15 -9 18 -55 18 l-55 0 0 -274z"/>
<path d="M3534 3049 c-3 -6 -3 -13 0 -16 3 -4 6 -1 6 5 0 6 7 9 15 6 8 -4 15
-4 15 -1 0 11 -30 16 -36 6z"/>
<path d="M4372 2990 c0 -14 2 -19 5 -12 2 6 2 18 0 25 -3 6 -5 1 -5 -13z"/>
<path d="M3568 2835 c-15 -19 -15 -24 -3 -29 8 -3 17 0 21 6 4 7 3 8 -4 4 -16
-9 -15 7 0 22 6 6 10 14 7 16 -2 2 -12 -6 -21 -19z"/>
<path d="M4365 2839 c-4 -6 -5 -12 -2 -15 2 -3 7 2 10 11 7 17 1 20 -8 4z"/>
<path d="M3306 2792 c-3 -5 1 -9 9 -9 8 0 12 4 9 9 -3 4 -7 8 -9 8 -2 0 -6 -4
-9 -8z"/>
<path d="M4368 2773 c7 -3 16 -2 19 1 4 3 -2 6 -13 5 -11 0 -14 -3 -6 -6z"/>
<path d="M4185 2750 c3 -5 8 -10 11 -10 2 0 4 5 4 10 0 6 -5 10 -11 10 -5 0
-7 -4 -4 -10z"/>
<path d="M2935 2670 c-3 -6 1 -7 9 -4 18 7 21 14 7 14 -6 0 -13 -4 -16 -10z"/>
</g>
</svg>
